<svg width="13" height="12" viewBox="0 0 13 12" fill="none" xmlns="http://www.w3.org/2000/svg">
<path d="M6.75 0C3.4365 0 0.75 2.6865 0.75 6C0.75 9.3135 3.4365 12 6.75 12C10.0635 12 12.75 9.3135 12.75 6C12.75 2.6865 10.0635 0 6.75 0ZM6 5.25C6 5.05109 6.07902 4.86032 6.21967 4.71967C6.36032 4.57902 6.55109 4.5 6.75 4.5C6.94891 4.5 7.13968 4.57902 7.28033 4.71967C7.42098 4.86032 7.5 5.05109 7.5 5.25V9C7.5 9.19891 7.42098 9.38968 7.28033 9.53033C7.13968 9.67098 6.94891 9.75 6.75 9.75C6.55109 9.75 6.36032 9.67098 6.21967 9.53033C6.07902 9.38968 6 9.19891 6 9V5.25ZM6.75 3.762C6.65148 3.76198 6.55394 3.74255 6.46293 3.70482C6.37192 3.6671 6.28924 3.61182 6.21959 3.54214C6.14995 3.47246 6.09471 3.38975 6.05703 3.29872C6.01935 3.2077 5.99998 3.11014 6 3.01163C6.00002 2.91311 6.01945 2.81556 6.05718 2.72456C6.0949 2.63355 6.15018 2.55086 6.21986 2.48122C6.28954 2.41157 6.37225 2.35634 6.46328 2.31866C6.5543 2.28098 6.65186 2.2616 6.75037 2.26163C6.94934 2.26167 7.14013 2.34076 7.28078 2.48148C7.42143 2.62221 7.50042 2.81304 7.50037 3.012C7.50033 3.21096 7.42124 3.40176 7.28052 3.54241C7.13979 3.68306 6.94896 3.76205 6.75 3.762Z" fill="#3F8CFF"/>
</svg>
